<svg width="600" height="500" viewBox="0 0 600 500" fill="none" xmlns="http://www.w3.org/2000/svg">
  <!-- Background -->
  <rect width="600" height="500" fill="url(#gradient)" />
  
  <!-- Warehouse Building -->
  <rect x="50" y="200" width="500" height="250" fill="#3B82F6" rx="8" />
  <rect x="60" y="210" width="480" height="230" fill="#60A5FA" rx="4" />
  
  <!-- Warehouse Door -->
  <rect x="250" y="300" width="100" height="150" fill="#1E40AF" rx="4" />
  <circle cx="330" cy="375" r="3" fill="#F59E0B" />
  
  <!-- Windows -->
  <rect x="100" y="250" width="60" height="40" fill="#93C5FD" rx="2" />
  <rect x="180" y="250" width="60" height="40" fill="#93C5FD" rx="2" />
  <rect x="360" y="250" width="60" height="40" fill="#93C5FD" rx="2" />
  <rect x="440" y="250" width="60" height="40" fill="#93C5FD" rx="2" />
  
  <!-- Pallet Stacks -->
  <g transform="translate(80, 350)">
    <rect width="40" height="8" fill="#8B5CF6" rx="2" />
    <rect y="8" width="40" height="8" fill="#A78BFA" rx="2" />
    <rect y="16" width="40" height="8" fill="#8B5CF6" rx="2" />
    <rect y="24" width="40" height="8" fill="#A78BFA" rx="2" />
  </g>
  
  <g transform="translate(450, 360)">
    <rect width="40" height="8" fill="#10B981" rx="2" />
    <rect y="8" width="40" height="8" fill="#34D399" rx="2" />
    <rect y="16" width="40" height="8" fill="#10B981" rx="2" />
  </g>
  
  <!-- Forklift -->
  <g transform="translate(380, 380)">
    <rect width="50" height="20" fill="#F59E0B" rx="3" />
    <rect x="45" y="5" width="15" height="40" fill="#D97706" rx="2" />
    <circle cx="10" cy="25" r="8" fill="#374151" />
    <circle cx="40" cy="25" r="8" fill="#374151" />
    <circle cx="10" cy="25" r="4" fill="#6B7280" />
    <circle cx="40" cy="25" r="4" fill="#6B7280" />
  </g>
  
  <!-- AI Detection Elements -->
  <g transform="translate(200, 120)">
    <!-- Scanning Lines -->
    <line x1="0" y1="0" x2="200" y2="0" stroke="#06B6D4" stroke-width="2" stroke-dasharray="5,5">
      <animate attributeName="stroke-dashoffset" values="0;10" dur="1s" repeatCount="indefinite" />
    </line>
    <line x1="0" y1="20" x2="200" y2="20" stroke="#06B6D4" stroke-width="2" stroke-dasharray="5,5">
      <animate attributeName="stroke-dashoffset" values="0;10" dur="1.2s" repeatCount="indefinite" />
    </line>
    <line x1="0" y1="40" x2="200" y2="40" stroke="#06B6D4" stroke-width="2" stroke-dasharray="5,5">
      <animate attributeName="stroke-dashoffset" values="0;10" dur="0.8s" repeatCount="indefinite" />
    </line>
  </g>
  
  <!-- Floating Data Points -->
  <circle cx="150" cy="180" r="4" fill="#EF4444">
    <animate attributeName="cy" values="180;170;180" dur="2s" repeatCount="indefinite" />
  </circle>
  <circle cx="400" cy="160" r="4" fill="#10B981">
    <animate attributeName="cy" values="160;150;160" dur="1.5s" repeatCount="indefinite" />
  </circle>
  <circle cx="320" cy="140" r="4" fill="#8B5CF6">
    <animate attributeName="cy" values="140;130;140" dur="1.8s" repeatCount="indefinite" />
  </circle>
  
  <!-- VisionAI Logo -->
  <g transform="translate(250, 50)">
    <rect width="100" height="40" fill="#1E40AF" rx="8" />
    <text x="50" y="25" text-anchor="middle" fill="white" font-family="system-ui" font-size="14" font-weight="bold">VisionAI</text>
  </g>
  
  <!-- Gradients -->
  <defs>
    <linearGradient id="gradient" x1="0%" y1="0%" x2="100%" y2="100%">
      <stop offset="0%" style="stop-color:#EBF8FF;stop-opacity:1" />
      <stop offset="100%" style="stop-color:#DBEAFE;stop-opacity:1" />
    </linearGradient>
  </defs>
</svg> 